<?xml version="1.0" encoding="UTF-8" standalone="no"?>
<!-- Created with Inkscape (http://www.inkscape.org/) -->

<svg
   width="250.69582mm"
   height="250.69582mm"
   viewBox="0 0 250.69582 250.69582"
   version="1.1"
   id="svg1"
   xml:space="preserve"
   inkscape:version="1.3.2 (091e20e, 2023-11-25)"
   sodipodi:docname="text-canvas.svg"
   xmlns:inkscape="http://www.inkscape.org/namespaces/inkscape"
   xmlns:sodipodi="http://sodipodi.sourceforge.net/DTD/sodipodi-0.dtd"
   xmlns="http://www.w3.org/2000/svg"
   xmlns:svg="http://www.w3.org/2000/svg"><sodipodi:namedview
     id="namedview1"
     pagecolor="#ffffff"
     bordercolor="#000000"
     borderopacity="0.25"
     inkscape:showpageshadow="2"
     inkscape:pageopacity="0.0"
     inkscape:pagecheckerboard="0"
     inkscape:deskcolor="#d1d1d1"
     inkscape:document-units="mm"
     showguides="true"
     inkscape:zoom="0.22627417"
     inkscape:cx="-1065.0796"
     inkscape:cy="945.75532"
     inkscape:window-width="1984"
     inkscape:window-height="1257"
     inkscape:window-x="1683"
     inkscape:window-y="28"
     inkscape:window-maximized="0"
     inkscape:current-layer="layer1" /><defs
     id="defs1" /><g
     inkscape:label="Ebene 1"
     inkscape:groupmode="layer"
     id="layer1"
     transform="translate(-249.08454,-0.77514648)"><rect
       style="fill:#ffffff;fill-opacity:0.995763;stroke-width:0.138193"
       id="rect300"
       width="241.63422"
       height="241.63422"
       x="253.6154"
       y="5.3059721" /><path
       id="path218"
       style="fill:#000000;stroke-width:0.927365"
       d="M 249.08454,0.77514648 V 251.47096 H 499.78035 V 0.77514648 Z m 6.35827,6.35826822 H 493.4226 V 245.1132 H 255.44281 Z m 6.50399,6.5039953 v 34.733798 c 0,4.283851 0.80993,7.352128 2.43086,9.204606 1.67881,1.79459 3.82143,2.692342 6.42648,2.692342 2.66294,0 4.80452,-0.897752 6.42545,-2.692342 1.67881,-1.852478 2.51819,-4.920755 2.51819,-9.204606 v -16.846 h 19.27738 v 19.856152 19.856669 106.178011 3.65559 16.61088 3.24579 19.85616 h -11.89643 c -4.28385,0 -7.35162,0.83937 -9.20409,2.51819 -1.7946,1.62093 -2.69183,3.73416 -2.69183,6.33915 0,2.66297 0.89723,4.83344 2.69183,6.51226 1.85247,1.62093 4.92024,2.43189 9.20409,2.43189 h 11.89643 v 0.0517 l 35.61953,-0.0336 v -0.0103 h 19.73988 v 0.0341 l 35.96938,-0.0341 V 220.7845 203.94625 c 0,-4.28384 -0.83988,-7.35216 -2.51871,-9.20461 -1.62089,-1.79459 -3.76252,-2.69234 -6.42545,-2.69234 -2.60503,0 -4.74716,0.89775 -6.42596,2.69234 -1.62092,1.85245 -2.43138,4.92077 -2.43138,9.20461 v 16.83825 h -37.90776 -5.83479 -5.99136 -5.99188 V 200.9283 181.07163 177.41604 71.238029 51.38136 31.532959 h 37.55791 18.16788 v 16.846 c 0,4.283862 0.81045,7.352639 2.43138,9.205123 1.6788,1.794594 3.82093,2.691825 6.42596,2.691825 2.66293,0 4.80454,-0.897231 6.42545,-2.691825 1.67883,-1.852484 2.51871,-4.921261 2.51871,-9.205123 V 13.731462 l -17.8015,-0.01654 v -0.03204 h -62.17656 z m 178.59737,0 v 1.83038 1.829345 l -1.90169,0.07183 -1.9017,0.07183 v 0.736389 0.735872 l 1.9017,0.07183 1.90169,0.07183 v 1.829346 1.829862 h 0.73587 0.73639 v -1.840198 -1.840197 h 1.8402 1.8402 v -0.858863 -0.858862 h -1.8402 -1.8402 V 15.477608 13.63741 h -0.73639 z m 41.22126,0 v 1.83038 1.829345 l -1.9017,0.07183 -1.90169,0.07183 v 0.736389 0.735872 l 1.90169,0.07183 1.9017,0.07183 v 1.829346 1.829862 h 0.73587 0.73639 v -1.840198 -1.840197 h 1.84019 1.8402 v -0.858863 -0.858862 h -1.8402 -1.84019 V 15.477608 13.63741 h -0.73639 z m -34.84181,3.926376 v 0.735872 0.736389 h 4.53926 4.53926 v -0.736389 -0.735872 h -4.53926 z m 10.30532,0 v 0.735872 0.736389 h 4.53926 4.53925 v -0.736389 -0.735872 h -4.53925 z m 10.30531,0 v 0.735872 0.736389 h 4.53926 4.53926 v -0.736389 -0.735872 h -4.53926 z m 14.23118,14.476636 v 8.587589 8.58759 h 0.85886 0.85886 v -8.58759 -8.587589 h -0.85886 z m -23.43888,2.095996 c -0.38856,0 -0.66708,0.103647 -0.83509,0.310575 -0.16278,0.199794 -0.24443,0.463967 -0.24443,0.7922 0,0.328232 0.0816,0.595605 0.24443,0.802535 0.16801,0.199792 0.44653,0.299723 0.83509,0.299723 h 0.25166 v 8.583972 h -0.25166 c -0.38331,0 -0.65932,0.103649 -0.82734,0.310576 -0.16802,0.199795 -0.25218,0.459733 -0.25218,0.78083 0,0.328234 0.0816,0.596122 0.24443,0.803052 0.16801,0.199796 0.44653,0.299723 0.83509,0.299723 h 4.74131 c 0.58284,0 1.0682,-0.09301 1.45676,-0.278535 0.38855,-0.192659 0.71716,-0.438767 0.98495,-0.738457 0.19953,-0.214066 0.36733,-0.502702 0.50385,-0.866613 0.18378,-0.478077 0.27595,-0.995791 0.27595,-1.55236 0,-0.699282 -0.12924,-1.32332 -0.38654,-1.872754 -0.25202,-0.556571 -0.63273,-1.041867 -1.14205,-1.455725 0.27828,-0.356776 0.48618,-0.745861 0.6227,-1.166854 0.13653,-0.420995 0.20464,-0.870158 0.20464,-1.348238 0,-1.006106 -0.29404,-1.873054 -0.88212,-2.600875 -0.58808,-0.734958 -1.36551,-1.102775 -2.33164,-1.102775 z m -48.94379,1.092956 v 1.830379 1.829863 l -1.90169,0.07183 -1.90169,0.07183 v 0.735873 0.736389 l 1.90169,0.07131 1.90169,0.07183 v 1.829862 1.829346 h 0.73588 0.73639 V 42.467688 40.62749 h 1.84019 1.8402 v -0.858862 -0.858346 h -1.8402 -1.84019 V 37.069568 35.22937 h -0.73639 z m 31.16141,0 v 1.830379 1.829863 l -1.90169,0.07183 -1.9017,0.07183 v 0.735873 0.736389 l 1.9017,0.07131 1.90169,0.07183 v 1.829862 1.829346 h 0.73587 0.73639 V 42.467688 40.62749 h 1.8402 1.8402 v -0.858862 -0.858346 h -1.8402 -1.8402 V 37.069568 35.22937 h -0.73639 z m 19.64893,1.112077 h 2.10271 c 0.58282,0 1.00862,0.146179 1.27641,0.438733 0.26779,0.285422 0.40153,0.620821 0.40153,1.00614 0,0.435266 -0.14227,0.79885 -0.42582,1.091406 -0.42005,0.435265 -0.94752,0.65319 -1.58285,0.65319 h -1.77198 z m -44.18542,2.814299 v 0.736389 0.735872 h 4.53926 4.53926 V 39.892139 39.15575 h -4.53926 z m 10.30532,0 v 0.736389 0.735872 h 4.53925 4.53926 V 39.892139 39.15575 h -4.53926 z m 33.8801,2.569352 h 2.13424 c 0.7561,0 1.33616,0.214206 1.74046,0.642338 0.40431,0.428128 0.60668,0.863462 0.60668,1.305863 0,0.371046 -0.1027,0.656484 -0.30748,0.856279 -0.26779,0.264011 -0.72961,0.395841 -1.38596,0.395841 h -2.78794 z m -50.81034,11.907283 v 8.58759 8.588106 h 0.85887 0.85886 v -8.588106 -8.58759 h -0.85886 z m 31.16141,3.18947 v 1.829862 1.829863 l -1.90169,0.07183 -1.9017,0.07183 v 0.736389 0.735873 l 1.9017,0.07131 1.90169,0.07183 v 1.829863 1.829862 h 0.73587 0.73639 V 64.06017 62.219972 h 1.8402 1.8402 v -0.85886 -0.858862 h -1.8402 -1.8402 v -1.840198 -1.840197 h -0.73639 z m 41.22126,0 v 1.829862 1.829863 l -1.9017,0.07183 -1.90169,0.07183 v 0.736389 0.735873 l 1.90169,0.07131 1.9017,0.07183 v 1.829863 1.829862 h 0.73587 0.73639 V 64.06017 62.219972 h 1.84019 1.8402 v -0.85886 -0.858862 h -1.8402 -1.84019 v -1.840198 -1.840197 h -0.73639 z m -34.84181,3.926375 v 0.735872 0.735873 h 4.53926 4.53926 V 61.484102 60.74823 h -4.53926 z m 10.30532,0 v 0.735872 0.735873 h 4.53926 4.53925 V 61.484102 60.74823 h -4.53925 z m 10.30531,0 v 0.735872 0.735873 h 4.53926 4.53926 V 61.484102 60.74823 h -4.53926 z m -58.15149,14.476119 v 8.588106 8.58759 h 0.85887 0.85886 v -8.58759 -8.588106 h -0.85886 z m 0,21.59248 v 8.587591 8.58811 h 0.85887 0.85886 v -8.58811 -8.587591 h -0.85886 z m -72.38318,3.188951 v 1.83038 1.82986 l -1.90169,0.0718 -1.90169,0.0718 v 0.73588 0.73639 l 1.90169,0.0713 1.90169,0.0718 v 1.82986 1.82935 h 0.73588 0.73639 v -1.8402 -1.8402 h 1.84019 1.8402 v -0.85886 -0.85835 h -1.8402 -1.84019 v -1.84019 -1.84072 h -0.73639 z m 41.46724,0 v 1.83038 1.82986 l -1.90169,0.0718 -1.90169,0.0718 v 0.73588 0.73639 l 1.90169,0.0713 1.90169,0.0718 v 1.82986 1.82935 h 0.73587 0.73639 v -1.8402 -1.8402 h 1.8402 1.8402 v -0.85886 -0.85835 h -1.8402 -1.8402 v -1.84019 -1.84072 h -0.73639 z m 62.07735,0 v 1.83038 1.82986 l -1.90169,0.0718 -1.9017,0.0718 v 0.73588 0.73639 l 1.9017,0.0713 1.90169,0.0718 v 1.82986 1.82935 h 0.73587 0.73639 v -1.8402 -1.8402 h 1.8402 1.8402 v -0.85886 -0.85835 h -1.8402 -1.8402 v -1.84019 -1.84072 h -0.73639 z m 41.22126,0 v 1.83038 1.82986 l -1.9017,0.0718 -1.90169,0.0718 v 0.73588 0.73639 l 1.90169,0.0713 1.9017,0.0718 v 1.82986 1.82935 h 0.73587 0.73639 v -1.8402 -1.8402 h 1.84019 1.8402 v -0.85886 -0.85835 h -1.8402 -1.84019 v -1.84019 -1.84072 h -0.73639 z m -138.14093,3.92638 v 0.73639 0.73587 h 4.53926 4.53926 v -0.73587 -0.73639 h -4.53926 z m 10.30532,0 v 0.73639 0.73587 h 4.53926 4.53925 v -0.73587 -0.73639 h -4.53925 z m 10.30531,0 v 0.73639 0.73587 h 4.53978 4.53925 v -0.73587 -0.73639 h -4.53925 z m 82.68849,0 v 0.73639 0.73587 h 4.53926 4.53926 v -0.73587 -0.73639 h -4.53926 z m 10.30532,0 v 0.73639 0.73587 h 4.53926 4.53925 v -0.73587 -0.73639 h -4.53925 z m 10.30531,0 v 0.73639 0.73587 h 4.53926 4.53926 v -0.73587 -0.73639 h -4.53926 z m -130.53467,14.47663 v 8.58811 8.58759 h 0.85887 0.85834 v -8.58759 -8.58811 h -0.85834 z m 41.46724,0 v 8.58811 8.58759 h 0.85886 0.85835 v -8.58759 -8.58811 h -0.85835 z m 103.29861,0 v 8.58811 8.58759 h 0.85886 0.85886 v -8.58759 -8.58811 h -0.85886 z m -125.5603,2.096 c -0.33741,0 -0.5786,0.10359 -0.7245,0.31057 -0.14135,0.19979 -0.21239,0.46397 -0.21239,0.7922 0,0.32823 0.0711,0.59612 0.21239,0.80306 0.1459,0.19979 0.38709,0.2992 0.7245,0.2992 h 0.91674 l -2.20245,8.58397 c -0.34653,-0.0143 -0.5947,0.082 -0.74517,0.28888 -0.15047,0.20693 -0.22583,0.47483 -0.22583,0.80305 0,0.32824 0.0727,0.5956 0.21859,0.80253 0.14134,0.19979 0.3809,0.30024 0.7183,0.30024 h 1.88775 c 0.33741,0 0.57695,-0.10043 0.7183,-0.30024 0.14591,-0.20693 0.21859,-0.47057 0.21859,-0.79168 0,-0.32823 -0.0728,-0.59241 -0.21859,-0.7922 -0.14135,-0.20693 -0.38089,-0.31058 -0.7183,-0.31058 h -0.3421 l 0.3421,-1.3379 h 3.40599 l 0.33538,1.3379 h -0.3421 c -0.33741,0 -0.57963,0.10362 -0.72554,0.31058 -0.14136,0.19979 -0.21135,0.46025 -0.21135,0.78135 0,0.32824 0.0699,0.5956 0.21135,0.80253 0.14591,0.19979 0.38813,0.30024 0.72554,0.30024 h 1.88722 c 0.33742,0 0.57748,-0.10043 0.71882,-0.30024 0.14136,-0.20693 0.21136,-0.47057 0.21136,-0.79168 0,-0.38531 -0.10445,-0.69574 -0.31419,-0.93121 -0.10484,-0.11417 -0.32128,-0.17157 -0.64958,-0.17157 l -2.79052,-10.77763 z m 105.67055,0 c -0.81398,0 -1.58395,0.25487 -2.30993,0.76481 -0.72598,0.50994 -1.29542,1.23823 -1.70791,2.18333 -0.40699,0.93829 -0.61081,1.95123 -0.61081,3.03909 v 1.41749 c 0,1.04027 0.22823,2.00223 0.68471,2.88612 0.4565,0.87711 1.00931,1.5201 1.65829,1.92805 0.80297,0.50994 1.70533,0.76481 2.7063,0.76481 0.85797,0 1.64179,-0.18371 2.35128,-0.55087 0.52799,-0.27196 0.95952,-0.64595 1.29501,-1.12189 0.231,-0.32637 0.34675,-0.63272 0.34675,-0.91829 0,-0.28556 -0.0859,-0.53337 -0.25632,-0.74414 -0.17048,-0.21077 -0.36826,-0.31626 -0.59376,-0.31626 -0.12649,0 -0.23897,0.0343 -0.33796,0.10232 -0.099,0.0612 -0.23691,0.19997 -0.4129,0.41754 -0.28599,0.36035 -0.55523,0.6016 -0.80822,0.72399 -0.4345,0.21078 -0.96568,0.31677 -1.59267,0.31677 -1.05047,0 -1.87253,-0.33663 -2.46651,-1.00975 -0.58849,-0.67312 -0.88263,-1.51293 -0.88263,-2.51923 v -1.35651 c 0,-0.8431 0.16229,-1.57036 0.48679,-2.18229 0.32449,-0.61193 0.69841,-1.05406 1.12189,-1.32602 0.42349,-0.27198 0.88824,-0.40773 1.39423,-0.40773 0.407,0 0.81136,0.0919 1.21285,0.27544 0.40699,0.18358 0.72329,0.42784 0.94878,0.73381 0.11551,0.15638 0.19249,0.37745 0.23099,0.663 0.0661,0.42836 0.16792,0.72057 0.30541,0.87695 0.1375,0.15639 0.31864,0.23513 0.54415,0.23513 0.2475,0 0.44856,-0.10595 0.60255,-0.31678 0.15949,-0.21757 0.23926,-0.57792 0.23926,-1.08107 v -1.77457 c 0,-0.50315 -0.0797,-0.85943 -0.23926,-1.07021 -0.15399,-0.21077 -0.35505,-0.31678 -0.60255,-0.31678 -0.143,0 -0.2776,0.0445 -0.40411,0.13281 -0.121,0.0884 -0.23347,0.22113 -0.33796,0.39791 -0.36849,-0.28557 -0.76784,-0.49654 -1.19683,-0.63252 -0.42348,-0.14278 -0.87943,-0.21446 -1.36891,-0.21446 z m -52.49292,1.09347 v 1.82986 1.82987 l -1.90169,0.0718 -1.90169,0.0718 v 0.73639 0.73587 l 1.90169,0.0713 1.90169,0.0718 v 1.82987 1.82986 h 0.73588 0.73639 v -1.8402 -1.8402 h 1.84019 1.8402 v -0.85886 -0.85886 h -1.8402 -1.84019 v -1.8402 -1.8402 h -0.73639 z m 31.16141,0 v 1.82986 1.82987 l -1.90169,0.0718 -1.9017,0.0718 v 0.73639 0.73587 l 1.9017,0.0713 1.90169,0.0718 v 1.82987 1.82986 h 0.73587 0.73639 v -1.8402 -1.8402 h 1.8402 1.8402 v -0.85886 -0.85886 h -1.8402 -1.8402 v -1.8402 -1.8402 h -0.73639 z m -82.07509,1.81798 1.12861,4.34599 h -2.26395 z m 26.3772,2.1084 v 0.73587 0.73639 h 4.53925 4.53926 v -0.73639 -0.73587 h -4.53926 z m 10.30531,0 v 0.73587 0.73639 h 4.53926 4.53926 v -0.73639 -0.73587 h -4.53926 z m 20.85609,0 v 0.73587 0.73639 h 4.53926 4.53926 v -0.73639 -0.73587 h -4.53926 z m 10.30532,0 v 0.73587 0.73639 h 4.53925 4.53926 v -0.73639 -0.73587 h -4.53926 z m -16.93024,14.47612 v 8.5881 8.58759 h 0.85887 0.85886 v -8.58759 -8.5881 h -0.85886 z m -72.38318,3.18947 v 1.83038 1.82934 l -1.90169,0.0724 -1.90169,0.0718 v 0.73587 0.73639 l 1.90169,0.0713 1.90169,0.0718 v 1.82987 1.82934 h 0.73588 0.73639 v -1.8402 -1.84019 h 1.84019 1.8402 v -0.85887 -0.85886 h -1.8402 -1.84019 v -1.8402 -1.84019 h -0.73639 z m 41.46724,0 v 1.83038 1.82934 l -1.90169,0.0724 -1.90169,0.0718 v 0.73587 0.73639 l 1.90169,0.0713 1.90169,0.0718 v 1.82987 1.82934 h 0.73587 0.73639 v -1.8402 -1.84019 h 1.8402 1.8402 v -0.85887 -0.85886 h -1.8402 -1.8402 v -1.8402 -1.84019 h -0.73639 z m 62.07735,0 v 1.83038 1.82934 l -1.90169,0.0724 -1.9017,0.0718 v 0.73587 0.73639 l 1.9017,0.0713 1.90169,0.0718 v 1.82987 1.82934 h 0.73587 0.73639 v -1.8402 -1.84019 h 1.8402 1.8402 v -0.85887 -0.85886 h -1.8402 -1.8402 v -1.8402 -1.84019 h -0.73639 z m 41.22126,0 v 1.83038 1.82934 l -1.9017,0.0724 -1.90169,0.0718 v 0.73587 0.73639 l 1.90169,0.0713 1.9017,0.0718 v 1.82987 1.82934 h 0.73587 0.73639 v -1.8402 -1.84019 h 1.84019 1.8402 v -0.85887 -0.85886 h -1.8402 -1.84019 v -1.8402 -1.84019 H 482.5013 Z M 343.6245,147.1166 v 0.73587 0.73639 h 4.53926 4.53926 v -0.73639 -0.73587 h -4.53926 z m 10.30532,0 v 0.73587 0.73639 h 4.53926 4.53925 v -0.73639 -0.73587 h -4.53925 z m 10.30531,0 v 0.73587 0.73639 h 4.53978 4.53925 v -0.73639 -0.73587 h -4.53925 z m 82.68849,0 v 0.73587 0.73639 h 4.53926 4.53926 v -0.73639 -0.73587 h -4.53926 z m 10.30532,0 v 0.73587 0.73639 h 4.53926 4.53925 v -0.73639 -0.73587 h -4.53925 z m 10.30531,0 v 0.73587 0.73639 h 4.53926 4.53926 v -0.73639 -0.73587 h -4.53926 z m -58.15149,14.47664 v 8.58759 8.5881 h 0.85887 0.85886 v -8.5881 -8.58759 h -0.85886 z m 0,21.59196 v 8.58811 8.58759 h 0.85887 0.85886 v -8.58759 -8.58811 h -0.85886 z m 31.16141,3.18947 v 1.82986 1.82987 l -1.90169,0.0718 -1.9017,0.0718 v 0.73638 0.73588 l 1.9017,0.0713 1.90169,0.0724 v 1.82934 1.82987 h 0.73587 0.73639 v -1.8402 -1.8402 h 1.8402 1.8402 v -0.85886 -0.85886 h -1.8402 -1.8402 v -1.8402 -1.8402 h -0.73639 z m 41.22126,0 v 1.82986 1.82987 l -1.9017,0.0718 -1.90169,0.0718 v 0.73638 0.73588 l 1.90169,0.0713 1.9017,0.0724 v 1.82934 1.82987 h 0.73587 0.73639 v -1.8402 -1.8402 h 1.84019 1.8402 v -0.85886 -0.85886 h -1.8402 -1.84019 v -1.8402 -1.8402 h -0.73639 z m -34.84181,3.92638 v 0.73587 0.73639 h 4.53926 4.53926 v -0.73639 -0.73587 h -4.53926 z m 10.30532,0 v 0.73587 0.73639 h 4.53926 4.53925 v -0.73639 -0.73587 h -4.53925 z m 10.30531,0 v 0.73587 0.73639 h 4.53926 4.53926 v -0.73639 -0.73587 h -4.53926 z m 14.23118,14.47663 v 8.58759 8.58759 h 0.85886 0.85886 v -8.58759 -8.58759 h -0.85886 z m -23.39393,2.096 c -0.40476,0 -0.69468,0.1036 -0.86971,0.31057 -0.16956,0.19979 -0.25476,0.46398 -0.25476,0.7922 0,0.3211 0.0852,0.58476 0.25476,0.79169 0.16958,0.1998 0.43202,0.30343 0.78755,0.31057 v 8.58397 c -0.35007,-0.007 -0.61252,0.0928 -0.78755,0.29973 -0.16956,0.20691 -0.25476,0.47058 -0.25476,0.79168 0,0.32824 0.0852,0.5956 0.25476,0.80253 0.17503,0.19979 0.46495,0.30024 0.86971,0.30024 h 3.38016 c 0.86971,0 1.57794,-0.16795 2.12494,-0.50332 0.3446,-0.21406 0.71131,-0.54575 1.09967,-0.99529 0.39383,-0.45667 0.71069,-1.04192 0.95136,-1.75545 0.24069,-0.72069 0.36174,-1.54458 0.36174,-2.4722 v -1.04903 c 0,-0.7635 -0.0656,-1.40933 -0.19689,-1.93735 -0.13128,-0.52803 -0.32862,-1.05958 -0.59118,-1.59474 -0.25708,-0.53517 -0.50604,-0.95616 -0.74672,-1.26297 -0.31725,-0.40672 -0.73839,-0.74214 -1.26349,-1.00614 -0.51963,-0.264 -1.05292,-0.39584 -1.5999,-0.39584 z m -48.98874,1.09295 v 1.83038 1.82935 l -1.90169,0.0724 -1.90169,0.0718 v 0.73587 0.73639 l 1.90169,0.0713 1.90169,0.0718 v 1.82986 1.82935 h 0.73588 0.73639 v -1.8402 -1.8402 h 1.84019 1.8402 v -0.85886 -0.85886 h -1.8402 -1.84019 v -1.8402 -1.8402 h -0.73639 z m 31.16141,0 v 1.83038 1.82935 l -1.90169,0.0724 -1.9017,0.0718 v 0.73587 0.73639 l 1.9017,0.0713 1.90169,0.0718 v 1.82986 1.82935 h 0.73587 0.73639 v -1.8402 -1.8402 h 1.8402 1.8402 v -0.85886 -0.85886 h -1.8402 -1.8402 v -1.8402 -1.8402 h -0.73639 z m 19.42672,1.11208 h 1.77302 c 0.59622,0 1.09081,0.15309 1.48466,0.45992 0.39929,0.29969 0.75762,0.85673 1.07487,1.67018 0.20239,0.52089 0.30386,1.12687 0.30386,1.81901 v 1.0387 c 0,0.80632 -0.11214,1.46225 -0.33641,1.96887 -0.22427,0.50662 -0.55842,0.92441 -1.00149,1.25264 -0.33912,0.24974 -0.84215,0.37465 -1.50947,0.37465 h -1.78904 z m -43.96321,2.8143 v 0.73587 0.73639 h 4.53926 4.53926 v -0.73639 -0.73587 h -4.53926 z m 10.30532,0 v 0.73587 0.73639 h 4.53925 4.53926 v -0.73639 -0.73587 h -4.53926 z m 14.23117,17.66559 v 1.83038 1.82986 l -1.90169,0.0718 -1.9017,0.0718 v 0.73587 0.73639 l 1.9017,0.0713 1.90169,0.0718 v 1.82986 1.82986 h 0.73587 0.73639 v -1.8402 -1.84071 h 1.8402 1.8402 v -0.85835 -0.85886 h -1.8402 -1.8402 v -1.8402 -1.8402 h -0.73639 z m 41.22126,0 v 1.83038 1.82986 l -1.9017,0.0718 -1.90169,0.0718 v 0.73587 0.73639 l 1.90169,0.0713 1.9017,0.0718 v 1.82986 1.82986 h 0.73587 0.73639 v -1.8402 -1.84071 h 1.84019 1.8402 v -0.85835 -0.85886 h -1.8402 -1.84019 v -1.8402 -1.8402 h -0.73639 z m -34.84181,3.92637 v 0.73639 0.73587 h 4.53926 4.53926 v -0.73587 -0.73639 h -4.53926 z m 10.30532,0 v 0.73639 0.73587 h 4.53926 4.53925 v -0.73587 -0.73639 h -4.53925 z m 10.30531,0 v 0.73639 0.73587 h 4.53926 4.53926 v -0.73587 -0.73639 h -4.53926 z" /></g></svg>
